<svg viewBox="0 0 200 200" xmlns="http://www.w3.org/2000/svg">
  <path fill="#FF0066" d="M24.7,-33.6C37.1,-35.6,55.8,-39.3,69,-34C82.1,-28.7,89.7,-14.3,83.7,-3.5C77.7,7.4,58.1,14.9,50,28.8C41.8,42.7,45,63.1,38.6,72.5C32.1,81.9,16.1,80.3,5.8,70.3C-4.4,60.2,-8.9,41.6,-16.3,32.8C-23.7,23.9,-34.1,24.8,-46.2,21C-58.3,17.1,-72.1,8.6,-75.1,-1.7C-78.1,-12.1,-70.4,-24.1,-58.7,-28.6C-46.9,-33.1,-31.2,-29.9,-20.8,-29.1C-10.3,-28.2,-5.2,-29.7,0.5,-30.5C6.1,-31.4,12.3,-31.7,24.7,-33.6Z" transform="translate(100 100)" />
</svg>